<svg width="81" height="81" viewBox="0 0 81 81" fill="none" xmlns="http://www.w3.org/2000/svg">
<g clip-path="url(#clip0_124_538)">
<path d="M40.5 81C62.8675 81 81 62.8675 81 40.5C81 18.1325 62.8675 0 40.5 0C18.1325 0 0 18.1325 0 40.5C0 62.8675 18.1325 81 40.5 81Z" fill="url(#paint0_linear_124_538)"/>
<path d="M40.5 2.79474C47.9574 2.79474 55.2473 5.00612 61.4479 9.14923C67.6485 13.2923 72.4813 19.1811 75.3351 26.0708C78.189 32.9606 78.9356 40.5418 77.4808 47.8559C76.0259 55.17 72.4348 61.8885 67.1617 67.1616C61.8885 72.4348 55.1701 76.0259 47.856 77.4808C40.5419 78.9356 32.9606 78.1889 26.0708 75.3351C19.1811 72.4813 13.2924 67.6485 9.14925 61.4479C5.00614 55.2473 2.79476 47.9574 2.79476 40.5C2.80556 30.5033 6.78154 20.9191 13.8503 13.8503C20.9191 6.78152 30.5033 2.80554 40.5 2.79474ZM40.5 0C32.4899 0 24.6596 2.37528 17.9994 6.82548C11.3392 11.2757 6.14825 17.6009 3.0829 25.0013C0.017548 32.4017 -0.784487 40.5449 0.778214 48.4012C2.34092 56.2574 6.19817 63.4738 11.8622 69.1378C17.5262 74.8018 24.7426 78.6591 32.5989 80.2218C40.4551 81.7845 48.5983 80.9825 55.9987 77.9171C63.3991 74.8518 69.7243 69.6608 74.1745 63.0006C78.6247 56.3404 81 48.5101 81 40.5C80.9982 29.7593 76.7307 19.459 69.1359 11.8642C61.541 4.26933 51.2407 0.00180289 40.5 0V0Z" fill="url(#paint1_linear_124_538)"/>
<path d="M37.5556 19.0398C37.1462 17.8284 36.3765 16.771 35.3497 16.0091C34.3228 15.2471 33.0877 14.817 31.8097 14.7762C28.1446 14.7762 25.2342 17.7954 24.6631 21.4401C24.5498 22.1154 24.5498 22.8048 24.6631 23.4801C24.7718 24.1125 31.2385 52.2639 31.2385 52.2639C31.4382 53.5586 32.0984 54.7377 33.0977 55.5847C34.0971 56.4316 35.3685 56.8895 36.6784 56.8742C38.9904 56.8742 41.4995 55.7726 42.7303 53.8959C43.0363 53.4267 76.0496 5.27683 76.206 4.93684C76.3797 4.56472 76.4944 4.16785 76.546 3.76046C76.626 3.3321 76.6076 2.89117 76.4922 2.47096C76.3768 2.05075 76.1675 1.66225 75.88 1.33479C75.5925 1.00733 75.2343 0.749481 74.8326 0.580705C74.4308 0.411929 73.996 0.33664 73.5609 0.360526C72.9014 0.373599 72.2533 0.53504 71.6647 0.832866C71.0761 1.13069 70.5621 1.55725 70.161 2.08089L42.9003 35.1214C42.7674 35.2736 42.5947 35.3857 42.4017 35.4453C42.2086 35.5048 42.0028 35.5095 41.8072 35.4586C41.6117 35.4078 41.4342 35.3036 41.2946 35.1575C41.1549 35.0115 41.0587 34.8295 41.0167 34.6319L37.5556 19.0398Z" fill="white"/>
<path d="M71.9901 15.3201L70.3854 13.4841C60.6752 27.6755 42.9343 53.6033 42.7439 53.8617C41.5131 55.7385 39.004 56.8401 36.692 56.8401C35.3821 56.8554 34.1107 56.3975 33.1113 55.5505C32.112 54.7036 31.4518 53.5244 31.2521 52.2298C31.2521 52.2298 24.7855 24.0783 24.6767 23.4459C24.56 22.7709 24.56 22.081 24.6767 21.406C24.7979 20.6431 25.0269 19.9013 25.3567 19.2028L5.51465 60.8928C10.3641 69.2256 18.0285 75.554 27.1284 78.739C36.2283 81.9239 46.1663 81.7564 55.1537 78.2664L71.9901 15.3201Z" fill="url(#paint2_linear_124_538)"/>
<path d="M70.5078 13.3008C61.0084 27.1997 42.9683 53.5152 42.7439 53.862C41.5132 55.7387 39.004 56.8403 36.692 56.8403C35.3822 56.8556 34.1107 56.3977 33.1114 55.5508C32.112 54.7038 31.4518 53.5247 31.2522 52.23C31.2522 52.23 24.7855 24.0786 24.6767 23.4462C24.5601 22.7712 24.5601 22.0812 24.6767 21.4062C24.7884 20.7322 24.9825 20.0745 25.2547 19.4479H25.2139L21.9023 26.4177L30.0622 58.9619C30.5994 60.927 32.8297 62.083 35.3593 62.219C39.3236 62.423 41.8803 61.4914 43.6823 59.0299C43.9475 58.6695 64.5579 28.9609 72.8469 16.1091C72.0785 15.1367 71.3238 14.2052 70.5078 13.3008Z" fill="#009600"/>
</g>
<defs>
<linearGradient id="paint0_linear_124_538" x1="40.5" y1="81" x2="40.5" y2="0" gradientUnits="userSpaceOnUse">
<stop offset="0.39" stop-color="#00E600"/>
<stop offset="1" stop-color="#009600"/>
</linearGradient>
<linearGradient id="paint1_linear_124_538" x1="4.73272" y1="59.5124" x2="76.2673" y2="21.4808" gradientUnits="userSpaceOnUse">
<stop offset="0.51" stop-color="#00E500"/>
<stop offset="1" stop-color="#009600"/>
</linearGradient>
<linearGradient id="paint2_linear_124_538" x1="38.7524" y1="81" x2="38.7524" y2="13.4841" gradientUnits="userSpaceOnUse">
<stop offset="0.26" stop-color="#00E600"/>
<stop offset="0.72" stop-color="#009600"/>
</linearGradient>
<clipPath id="clip0_124_538">
<rect width="81" height="81" fill="white"/>
</clipPath>
</defs>
</svg>
