<svg width="169" height="50" viewBox="0 0 169 50" fill="none" xmlns="http://www.w3.org/2000/svg">
<g clip-path="url(#clip0_677_811)">
<path d="M24.8393 49.9831C38.5577 49.9831 49.6786 38.8081 49.6786 25.0229C49.6786 11.2378 38.5577 0.0627441 24.8393 0.0627441C11.1209 0.0627441 0 11.2378 0 25.0229C0 38.8081 11.1209 49.9831 24.8393 49.9831Z" fill="url(#paint0_linear_677_811)"/>
<path d="M24.8393 1.78515C29.4131 1.78515 33.8841 3.14802 37.687 5.70142C41.49 8.25482 44.454 11.8841 46.2043 16.1302C47.9546 20.3764 48.4125 25.0487 47.5203 29.5564C46.628 34.0641 44.4255 38.2047 41.1914 41.4545C37.9572 44.7044 33.8367 46.9176 29.3509 47.8142C24.865 48.7108 20.2153 48.2507 15.9897 46.4918C11.7641 44.733 8.15242 41.7546 5.61138 37.9332C3.07035 34.1117 1.71407 29.6189 1.71407 25.0229C1.7207 18.8619 4.15923 12.9552 8.49462 8.59869C12.83 4.2422 18.7082 1.7918 24.8393 1.78515ZM24.8393 0.0627441C19.9266 0.0627441 15.1242 1.52663 11.0393 4.26929C6.95454 7.01196 3.77082 10.9102 1.89079 15.4711C0.0107625 20.032 -0.481139 25.0506 0.477292 29.8924C1.43572 34.7342 3.80144 39.1817 7.27528 42.6725C10.7491 46.1632 15.1751 48.5404 19.9934 49.5035C24.8118 50.4666 29.8061 49.9723 34.3449 48.0831C38.8837 46.194 42.7631 42.9948 45.4925 38.8901C48.2219 34.7854 49.6787 29.9596 49.6787 25.0229C49.6776 18.4034 47.0602 12.0553 42.4022 7.37464C37.7441 2.69394 31.4268 0.0638553 24.8393 0.0627441Z" fill="url(#paint1_linear_677_811)"/>
<path d="M23.034 11.7802C22.7829 11.0337 22.3109 10.382 21.6811 9.91241C21.0513 9.44282 20.2938 9.17774 19.51 9.15263C17.2621 9.15263 15.4771 11.0133 15.1268 13.2596C15.0573 13.6757 15.0573 14.1006 15.1268 14.5168C15.2019 14.9024 19.1847 32.2689 19.1847 32.2689C19.303 33.0683 19.7069 33.7971 20.3209 34.3191C20.9348 34.8412 21.7169 35.1209 22.521 35.106C23.939 35.106 25.4779 34.4271 26.2328 33.2705C26.4204 32.9813 46.6681 3.30651 46.764 3.09697C46.8705 2.86764 46.9408 2.62305 46.9725 2.37197C47.0216 2.10797 47.0103 1.83623 46.9395 1.57725C46.8687 1.31828 46.7404 1.07884 46.564 0.877031C46.3877 0.675219 46.168 0.516304 45.9216 0.412288C45.6752 0.308271 45.4085 0.261871 45.1417 0.276591C44.7372 0.284648 44.3397 0.384144 43.9787 0.567695C43.6177 0.751245 43.3025 1.01414 43.0564 1.33685L26.312 21.7082C26.2305 21.8019 26.1246 21.871 26.0062 21.9077C25.8878 21.9444 25.7615 21.9473 25.6416 21.916C25.5217 21.8847 25.4128 21.8204 25.3272 21.7304C25.2415 21.6404 25.1825 21.5282 25.1568 21.4064L23.034 11.7802Z" fill="white"/>
<path d="M44.1528 9.50472L43.1686 8.38159C37.2132 17.1277 26.3324 33.1071 26.2157 33.2663C25.4608 34.423 23.9219 35.1019 22.5039 35.1019C21.7032 35.1129 20.9257 34.8319 20.3154 34.311C19.705 33.7902 19.3032 33.0647 19.1842 32.2689C19.1842 32.2689 15.2181 14.915 15.1514 14.5253C15.0799 14.1093 15.0799 13.684 15.1514 13.268C15.2258 12.7979 15.3662 12.3407 15.5684 11.9102L3.38232 37.5912C6.35657 42.7267 11.0572 46.6269 16.6384 48.5898C22.2195 50.5527 28.3146 50.4495 33.8268 48.2986L44.1528 9.50472Z" fill="url(#paint2_linear_677_811)"/>
<path d="M43.2431 8.26416C37.4045 16.8259 26.3527 33.0441 26.2151 33.2579C25.4603 34.4145 23.9214 35.0934 22.5034 35.0934C21.7039 35.1047 20.9274 34.8249 20.3173 34.3057C19.7071 33.7865 19.3045 33.0631 19.1837 32.2689C19.1837 32.2689 15.2176 14.9149 15.1509 14.5252C15.0793 14.1092 15.0793 13.6839 15.1509 13.2679C15.2194 12.8525 15.3384 12.4472 15.5053 12.061H15.4803L13.4326 16.344L18.4372 36.4009C18.7625 37.6121 20.1471 38.3245 21.686 38.4083C24.1174 38.534 25.6855 37.9599 26.7906 36.4429C26.9533 36.2207 39.594 17.9155 44.6778 9.99075C44.2065 9.39148 43.7436 8.80058 43.2431 8.26416Z" fill="#009600"/>
<path d="M60.7271 10.8037H66.9202L69.6852 30.6637H69.7603L72.5253 10.8037H78.7185V38.5549H74.6147V17.5425H74.5355L71.3784 38.5549H67.7501L64.5931 17.5466H64.5138V38.5549H60.7271V10.8037Z" fill="black"/>
<path d="M81.478 10.8037H93.3138V14.764H85.807V22.0978H91.7624V26.0623H85.8195V34.5863H93.3263V38.5549H81.478V10.8037Z" fill="black"/>
<path d="M96.3381 37.1428C95.226 35.9415 94.6699 34.2177 94.6699 31.9714V17.3834C94.6699 15.1483 95.226 13.4231 96.3381 12.2078C97.4502 10.9925 99.0545 10.3918 101.151 10.4058C103.256 10.4058 104.86 11.0064 105.964 12.2078C107.067 13.4091 107.623 15.1343 107.632 17.3834V19.7595H103.532V17.1068C103.532 15.2796 102.781 14.3702 101.284 14.3702C99.7871 14.3702 99.0322 15.2796 99.0322 17.1068V32.269C99.0322 34.0654 99.7829 34.965 101.284 34.9678C102.786 34.9706 103.532 34.071 103.524 32.269V26.821H101.343V22.8942H107.598V31.9714C107.598 34.2065 107.042 35.9303 105.93 37.1428C104.818 38.3554 103.214 38.9574 101.117 38.9491C99.0434 38.9491 97.4502 38.347 96.3381 37.1428Z" fill="black"/>
<path d="M125.998 10.8037H131.441L135.661 27.4117H135.74V10.8037H139.606V38.5549H135.148L129.943 18.2926H129.864V38.5549H125.998V10.8037Z" fill="black"/>
<path d="M142.372 10.8037H154.203V14.764H146.696V22.0978H152.656V26.0623H146.709V34.5863H154.216V38.5549H142.372V10.8037Z" fill="black"/>
<path d="M160.121 14.764H155.587V10.8037H169V14.764H164.462V38.5549H160.121V14.764Z" fill="black"/>
<path d="M113.504 10.8037H119.38L123.863 38.5549H119.538L118.75 33.0441V33.107H113.821L113.02 38.5549H109L113.504 10.8037ZM118.237 29.3562L116.306 15.6399H116.227L114.334 29.3562H118.237Z" fill="black"/>
<path d="M80.1107 24.5283H80.0815V24.8259H80.1107V24.5283Z" fill="#201600"/>
</g>
<defs>
<linearGradient id="paint0_linear_677_811" x1="24.8393" y1="49.9831" x2="24.8393" y2="0.0627441" gradientUnits="userSpaceOnUse">
<stop offset="0.39" stop-color="#00E600"/>
<stop offset="1" stop-color="#009600"/>
</linearGradient>
<linearGradient id="paint1_linear_677_811" x1="2.90266" y1="36.7445" x2="46.8696" y2="13.4783" gradientUnits="userSpaceOnUse">
<stop offset="0.51" stop-color="#00E500"/>
<stop offset="1" stop-color="#009600"/>
</linearGradient>
<linearGradient id="paint2_linear_677_811" x1="23.7676" y1="49.9833" x2="23.7676" y2="8.37321" gradientUnits="userSpaceOnUse">
<stop offset="0.26" stop-color="#00E600"/>
<stop offset="0.72" stop-color="#009600"/>
</linearGradient>
<clipPath id="clip0_677_811">
<rect width="169" height="50" fill="white"/>
</clipPath>
</defs>
</svg>
